<svg
   viewBox="0 0 397 379"
   height="48"
   width="48"
   version="1.1"
   id="svg2">
  <title
     id="title4146">camera</title>
  <path
     id="path4144"
     d="m 138,377.82849 c 0,-1.52922 -0.70509,-2.56775 -1.96744,-2.89786 -1.18176,-0.30904 -2.92114,-2.65183 -4.35562,-5.86664 -4.27867,-9.58892 -1.12211,-8.94838 -45.325523,-9.19759 l -38.85142,-0.21903 -7.7759,-2.61717 c -4.27675,-1.43945 -10.72062,-4.53573 -14.31972,-6.88064 -7.68175,-5.00486 -17.6812201,-14.77762 -19.4229901,-18.98265 -0.87074,-2.10214 -1.91058,-2.95505 -3.60271,-2.95505 L 0.28388834,323.38571 -3.0508475e-6,283.21186 0.28388834,242.18634 2.2725969,238.21186 c 0.7007997,-1.40056 2.85126,-1.07452 4.13403,-3.45648 3.07865,-5.7167 12.6513801,-14.92194 20.0933701,-19.32201 12.06704,-7.13461 14.72336,-7.48641 59.38372,-7.86485 28.631863,-0.24261 39.776653,-0.65983 40.823053,-1.52826 0.79163,-0.657 2.68204,-3.93526 4.20089,-7.28502 2.829,-6.23923 3.92919,-7.10458 13.36027,-10.5085 3.81028,-1.37522 4.61564,-4.21736 4.35075,-15.35402 -0.18384,-7.72946 -0.5889,-9.99047 -2.08621,-11.64498 -1.85197,-2.0464 -2.77194,-2.36856 -16.03247,-5.61422 -3.85,-0.94233 -8.575,-2.50148 -10.5,-3.46477 -5.32304,-2.66372 -15.69703,-14.07156 -18.78,-20.65158 l -2.720003,-5.80531 -0.28872,-57.288195 -0.28872,-57.2882 3.038723,-3.03872 C 102.63258,6.4254449 104,4.1926349 104,3.1349449 c 0,-1.88493 2.03333,-1.92308 102.5,-1.92308 102.25099,0 102.5,0.005 102.5,2.02475 0,1.22807 0.96311,2.39092 2.4477,2.95537 5.87728,2.2345301 5.75824,0.96626 5.60769,59.7417301 -0.1279,49.934875 -0.27468,54.222455 -2.05386,59.995235 -2.81416,9.13086 -4.30502,11.51744 -12.00459,19.21701 -6.32713,6.32712 -7.715,7.20572 -15.03537,9.51823 -4.43565,1.40122 -9.18893,2.54767 -10.56285,2.54767 -4.0137,0 -8.45514,2.86921 -9.7776,6.31642 -1.70708,4.44979 -1.46291,19.96436 0.34856,22.14705 0.77586,0.93485 3.99621,3.00492 7.15634,4.60014 5.18401,2.61689 6.01188,3.49358 8.46878,8.96829 1.49771,3.33733 3.59721,6.53567 4.66556,7.10744 1.21051,0.64785 11.23038,0.99839 26.59105,0.93028 35.56025,-0.15768 45.60179,1.3963 57.47423,8.89443 6.63514,4.19046 14.13223,11.55954 18.07656,16.70654 5.46223,7.73611 4.74349,5.6025 6.31391,9.72335 L 397,283.21186 c 1.66344,22.64727 -0.30071,33.22494 -6.82921,50.25 -10.66005,12.39667 -19.76454,19.43342 -32.29871,23.49593 -8.27069,2.68065 -8.73109,2.71567 -38.0158,2.89173 -19.79246,0.11899 -30.34521,0.55364 -31.75461,1.30793 -1.16099,0.62134 -3.45674,3.79583 -5.10167,7.05441 -1.64493,3.25858 -3.89285,6.40747 -4.99539,6.99753 -1.10253,0.59006 -2.00461,1.957 -2.00461,3.03765 0,1.93411 -1.07853,1.96482 -69,1.96482 l -69,0 z M 260.52794,358.01717 C 266.12129,355.46868 266,357.12712 266,283.19578 c 0,-44.80533 -0.35236,-68.77379 -1.02964,-70.03931 -2.61363,-4.88361 -3.33366,-4.94461 -58.36494,-4.94461 l -51.49389,0 -2.80577,2.41308 -2.80576,2.41307 -0.29227,67.33693 c -0.16075,37.0353 -0.0184,68.8497 0.31627,70.69865 0.3347,1.84895 1.68327,4.43645 2.99682,5.75 l 2.38827,2.38827 51.4984,0 c 37.7972,0 52.196,-0.31785 54.12045,-1.19469 z m -91.60486,-43.72839 c -4.10556,-4.10555 -3.84182,-8.43938 1.48385,-24.38342 2.42381,-7.25643 5.60278,-17.0957 7.06437,-21.86506 2.78807,-9.09782 5.97806,-14.19404 11.09058,-17.71797 2.79339,-1.9254 4.42459,-2.11047 18.60212,-2.11047 14.4781,0 15.76422,0.15378 18.81746,2.25 4.89978,3.36398 8.76819,9.47046 10.61101,16.75 0.90502,3.575 2.89244,9.425 4.4165,13 3.36812,7.90065 7.10185,20.12037 7.7461,25.35141 0.57196,4.64398 -1.18517,8.30252 -4.91351,10.23052 -5.60635,2.89916 -11.87762,-3.13714 -15.01534,-14.45275 -3.91502,-14.11877 -9.26012,-28.49139 -11.65367,-31.33596 -2.46288,-2.92697 -2.681,-2.9819 -10.44195,-2.62946 -9.01913,0.40958 -10.79691,1.6812 -12.83885,9.1834 -0.62168,2.28406 -2.3994,7.30284 -3.9505,11.15284 -1.5511,3.85 -3.59274,10.05053 -4.53698,13.77896 -1.33494,5.27119 -2.64286,7.77341 -5.88042,11.25 -2.28999,2.45907 -4.95429,4.47104 -5.92066,4.47104 -0.96637,0 -3.07242,-1.31538 -4.68011,-2.92308 z m -43.64096,26.57798 c 6.21425,-2.5976 5.92738,0.24908 5.77072,-57.2629 -0.15166,-55.67592 -0.26449,-57.06948 -4.76585,-58.86075 -2.63551,-1.04877 -71.057183,-0.59122 -75.961993,0.50797 -9.55064,2.14034 -15.80785,5.27973 -21.67473,10.87471 -11.87971,11.32915 -13.57096,17.24663 -13.60036,47.58607 -0.0213,21.94943 1.09751,30.64841 4.66558,36.27713 6.02624,9.50651 14.14377,16.37117 22.69718,19.19405 7.15509,2.36139 13.8877,2.77855 46.86945,2.90406 25.428503,0.0968 33.503953,-0.17697 36.000003,-1.22034 z M 61.549847,323.67192 c -8.04517,-2.03437 -13.27369,-5.2852 -19.58058,-12.17421 -9.20136,-10.05064 -13.28437,-22.85056 -11.01647,-34.53585 1.68071,-8.6598 3.89449,-13.26405 9.77326,-20.32649 5.70098,-6.84885 12.24198,-11.37242 20.13436,-13.92435 7.434,-2.40371 20.59218,-1.71041 28.13958,1.48267 6.24432,2.64178 17.088973,12.46308 20.033863,18.14337 6.8825,13.27539 7.70416,22.70322 3.06164,35.12989 -4.3256,11.57837 -14.742263,22.36115 -24.401123,25.25874 -7.69382,2.3081 -19.12304,2.72174 -26.14453,0.94623 z m 21.545,-18.71006 c 5.23991,-2.65875 7.13284,-4.34153 10.40515,-9.25 3.55556,-5.33333 4,-6.66667 4,-12 0,-5.20152 -0.511,-6.83557 -3.83982,-12.27867 -4.18148,-6.83734 -9.70687,-10.56554 -17.50733,-11.81288 -9.46169,-1.51299 -19.75774,3.77495 -24.57168,12.61975 -2.4864,4.56833 -2.75116,5.93441 -2.42023,12.48761 0.3148,6.23396 0.83341,8.01528 3.39448,11.65924 3.15329,4.48657 8.82075,8.79774 13.94458,10.60746 5.41244,1.91166 9.90635,1.36125 16.59485,-2.03251 z m 270.023673,34.9687 c 7.78062,-2.60094 12.16162,-5.33016 17.4798,-10.88934 10.53441,-11.01179 12.40982,-17.90611 12.38432,-45.52677 -0.0243,-26.35536 -1.66418,-33.28419 -10.34434,-43.70807 -5.75685,-6.91332 -10.77324,-10.23423 -19.73618,-13.06563 -7.42933,-2.34692 -9.01895,-2.46268 -35.38786,-2.57704 -30.05897,-0.13036 -31.44356,0.10181 -33.54323,5.62435 -1.40168,3.6867 -1.33201,104.88079 0.074,107.50797 2.45605,4.58918 5.46327,4.97067 35.95495,4.56118 22.23383,-0.2986 29.51545,-0.7222 33.11852,-1.92665 z m -48.60461,-31.7187 c -5.0043,-2.51381 -5.48303,-4.71866 -5.49917,-25.32692 l -0.0147,-18.82693 2.92308,-2.92307 c 1.60769,-1.6077 3.74519,-2.96127 4.75,-3.00794 13.01172,-0.60436 54.613,0.1676 56.25019,1.04379 4.33163,2.31822 5.07673,5.84412 5.07673,24.02353 0,18.28986 -0.89631,22.82131 -4.94232,24.98667 -1.38939,0.74358 -11.25161,1.19865 -28.83465,1.33049 -22.05174,0.16535 -27.24501,-0.0618 -29.70912,-1.29962 z m 42.40936,-19.58889 c 4.062,-3.41794 4.07596,-7.07961 0.0417,-10.94463 -2.85607,-2.73629 -3.54877,-2.91307 -11.75,-2.99871 -14.07594,-0.14698 -19.73276,3.34891 -17.81071,11.00695 1.03359,4.11817 4.95622,5.44072 16.26897,5.48524 9.51494,0.0374 10.37238,-0.12749 13.25,-2.54885 z M 246.58752,186.9061 C 248.77106,184.36659 249,183.1994 249,174.60644 c 0,-10.34859 -1.41251,-14.75596 -5.10469,-15.92781 -2.79236,-0.88626 -69.97495,-0.89366 -72.76537,-0.008 -3.73248,1.18464 -5.12994,5.56192 -5.12994,16.0685 0,9.33341 0.0901,9.71671 2.95924,12.58582 l 2.95923,2.95924 36.12829,-0.28616 36.12828,-0.28616 2.41248,-2.80576 z m 38.23709,-50.10536 c 5.86732,-2.9732 10.3557,-7.87045 12.58713,-13.73375 1.4726,-3.86938 1.62572,-9.51063 1.37286,-50.578085 -0.27893,-45.30269 -0.32604,-46.26439 -2.36627,-48.30389 -2.07712,-2.07639 -2.27104,-2.08087 -88.86767,-2.05182 -90.81572,0.0305 -88.32052,-0.0884 -90.67914,4.31873 -1.35812,2.53767 -1.28497,90.998695 0.0791,95.658265 2.30804,7.88411 10.83883,15.48651 18.929,16.869 2.35814,0.40297 35.74298,0.63127 74.18854,0.50733 l 69.90102,-0.22535 z M 136.47576,122.79166 c -1.66333,-0.71137 -3.57638,-2.50522 -4.25122,-3.98633 -1.71092,-3.75507 -1.92434,-72.417355 -0.2349,-75.574115 1.48406,-2.77298 6.70466,-4.99161 10.18164,-4.32694 1.46892,0.2808 3.66437,1.56819 4.87877,2.86087 2.19614,2.33768 2.20773,2.54641 2.1553,38.82166 -0.033,22.814645 -0.4353,37.186205 -1.07444,38.380445 -2.26815,4.23809 -7.03252,5.80142 -11.65515,3.82441 z m 33.8266,0.40841 c -4.93158,-1.98602 -5.20852,-4.14292 -5.34209,-41.606705 -0.0736,-20.65336 0.27451,-35.91801 0.85351,-37.4226 2.27987,-5.92448 9.27721,-7.32246 13.83552,-2.76415 l 2.59475,2.59476 -0.026,36.63428 c -0.0284,39.962795 -0.0934,40.437745 -5.83541,42.620835 -2.93172,1.11464 -3.17798,1.11236 -6.08024,-0.0564 z m 34.00594,0.002 c -5.39967,-2.175 -5.49814,-2.9335 -5.52631,-42.566605 1.68717,-10.349208 -0.76291,-28.516177 2.56875,-39.22904 3.53889,-3.53889 8.75971,-3.53889 12.2986,0 l 2.59475,2.59476 -0.026,36.63428 c -0.0284,39.962795 -0.0934,40.437745 -5.83541,42.620835 -2.93096,1.11436 -3.17866,1.11214 -6.0743,-0.0542 z m 33,0 c -5.36138,-2.15957 -5.46572,-2.95671 -5.50315,-42.044975 -0.0327,-34.21016 0.0696,-36.30075 1.89784,-38.74943 2.38877,-3.1995 6.46261,-4.38283 10.38334,-3.01605 5.73799,2.00046 5.91367,3.2428 5.91367,41.82025 0,38.794265 -0.1484,39.810275 -6.11884,41.891575 -3.65477,1.27406 -3.65519,1.27407 -6.57286,0.0988 z m 34,0 c -5.29593,-2.13321 -5.39735,-2.9128 -5.46416,-42.002235 -0.0585,-34.20886 0.0447,-36.36225 1.85782,-38.79078 3.78699,-5.07227 10.44591,-4.95372 13.85332,0.24665 1.47058,2.24438 1.65337,6.5777 1.60275,37.99673 -0.0633,39.277625 -0.22028,40.339475 -6.27687,42.450815 -1.74878,0.60963 -3.22496,1.0799 -3.28038,1.04503 -0.0554,-0.0349 -1.08705,-0.46065 -2.29248,-0.94621 z"
     style="fill:#2d2d2d" />
</svg>
