<svg
   id="svg2"
   width="293"
   height="414"
   viewBox="0 0 293 414">
  <title>coffee</title>
  <path
     style="fill:#fff"
     d="m 35.028218,408.25 c -0.95839,-4.51177 -1.88515,-15.06213 -2.21802,-25.25 -0.31447,-9.625 -1.67681,-31.45 -3.02742,-48.5 -1.3506,-17.05 -3.14406,-44.5 -3.98546,-61 -2.06274,-40.45077 -3.46204,-59.2102 -4.77388,-64 -0.60255,-2.2 -1.23777,-9.85 -1.41161,-17 -0.17384,-7.15 -0.67472,-20.76218 -1.11308,-30.24928 -0.7671,-16.60234 -0.89163,-17.34391 -3.32035,-19.77263 -1.72707,-1.72707 -4.48133,-2.88748 -8.7279902,-3.67723 l -6.20465,-1.15387 0,-41.225305 0,-41.225311 6.25,-0.716481 c 6.8380702,-0.783895 13.1817502,-3.497937 14.5691202,-6.233159 0.84198,-1.66 1.54658,-3.730425 6.03946,-17.746734 1.05781,-3.3 3.3823,-9.825 5.16554,-14.5 1.78324,-4.675 3.45839,-9.7374997 3.72257,-11.2499997 l 0.48031,-2.75 109.886502,0 c 103.98526,0 109.88677,0.09398 109.89144,1.75 0.003,0.9625 1.39159,5.575 3.08638,10.2499997 5.23196,14.432096 9.90868,29.026954 9.90868,30.92248 0,3.877919 3.74555,6.799726 10.99385,8.576013 3.86318,0.946721 7.27151,2.121855 7.57407,2.611409 C 288.11624,56.599456 289.46224,57 290.80478,57 l 2.44098,0 0,39.772615 0,39.772615 -5.75,1.30882 c -6.15487,1.40098 -11.93496,4.6646 -12.7578,7.20346 -0.87192,2.6903 -3.44447,37.27621 -4.97927,66.94249 -2.2177,42.86608 -5.3988,96.926 -6.53168,111 -0.5534,6.875 -1.89134,27.8 -2.97321,46.5 -1.08187,18.7 -2.50882,36.8125 -3.171,40.25 l -1.20396,6.25 -109.60219,0 -109.602192,0 z M 148.27178,398 l 86.86245,0 2.73388,-2.35158 2.73388,-2.35158 1.27247,-23.89842 c 0.69986,-13.14413 1.74653,-30.04435 2.32595,-37.55605 0.57941,-7.51169 0.78008,-14.37008 0.44593,-15.24086 -1.35791,-3.53866 -6.25973,-3.70245 -101.73911,-3.39937 L 49.068698,313.5 l -1.98495,2.45153 c -1.40395,1.73396 -1.82516,3.34383 -1.43904,5.5 0.87906,4.90879 3.39079,33.56759 4.6493,53.04847 0.79343,12.28186 1.62434,18.73186 2.61559,20.30379 1.60213,2.54067 5.09893,4.31332 7.16795,3.63368 C 60.810038,398.19686 100.49744,398 148.27178,398 Z m 93.21221,-104.04933 c 2.05603,-0.571 4.22993,-1.95691 4.83088,-3.0798 0.60095,-1.12289 1.48989,-9.0907 1.97541,-17.70625 2.07359,-36.79535 2.96404,-58.97874 2.42394,-60.38621 C 249.28975,209.06629 247.46422,209 146.66659,209 41.852298,209 42.916188,208.9533 40.444308,213.66534 c -0.56867,1.08404 -0.64119,4.15545 -0.17727,7.50708 0.43184,3.11984 1.54195,19.31984 2.46693,36 0.92497,16.68017 2.16509,31.60606 2.75582,33.16864 0.59073,1.56258 2.01498,3.22155 3.16501,3.68661 3.13658,1.26839 188.250932,1.19447 192.829192,-0.077 z M 114.31687,259.96583 c 0.0818,-4.19022 0.0978,-7.8573 -0.2337,-15.81031 8.39448,0.004 59.6935,-0.23537 67.66835,-0.17435 0.10612,6.43109 -0.2874,9.42838 0.34919,15.59845 -7.94828,0.12033 -64.10772,0.49836 -67.78384,0.38621 z m 135.67889,-70.95487 c 1.7875,-1.08986 3.27607,-2.10068 3.30794,-2.24626 0.46745,-2.13544 2.85574,-31.74611 2.89231,-35.85971 0.092,-10.35013 11.02485,-9.36249 -107.30504,-9.69371 -56.729862,-0.1588 -104.611112,-0.0253 -106.402772,0.29673 -6.16662,1.10827 -6.59588,3.02027 -5.44079,24.23413 0.56175,10.31682 1.35354,19.5954 1.75952,20.61906 1.82338,4.59751 0.90893,4.55839 107.438832,4.59592 98.46068,0.0347 100.56595,-0.005 103.75,-1.94616 z m 22.43843,-69.68149 c 1.63756,-1.48197 1.81157,-3.62679 1.81157,-22.329475 0,-18.758278 -0.17038,-20.844214 -1.8249,-22.341529 -1.67489,-1.515761 -12.01111,-1.657823 -125.75,-1.728316 -68.158802,-0.04224 -124.690832,0.220983 -125.626732,0.58495 -2.93156,1.14007 -3.654,6.412325 -3.44194,25.118555 0.21374,18.854475 0.60721,20.677125 4.7985,22.228205 0.94839,0.35098 57.18631,0.51865 124.973142,0.3726 112.57923,-0.24255 123.40562,-0.40746 125.06036,-1.90499 z M 249.84264,51.919598 c 1.90183,-1.578377 1.745,-5.262186 -0.52873,-12.419598 -2.82837,-8.903336 -5.66816,-14.775596 -8.37526,-17.31879 l -2.41085,-2.264872 -92.19878,0.01487 -92.198782,0.01487 -3.0354,2.161395 c -3.10423,2.210407 -6.02564,7.764052 -7.32895,13.932414 -0.40209,1.903066 -1.39212,4.885172 -2.20006,6.626903 -2.28292,4.92148 -1.42363,8.638109 2.27345,9.833217 4.6807,1.51307 204.158072,0.951055 206.003362,-0.580409 z"
     id="path4138" />
</svg>
