<svg
   viewBox="0 0 380 380"
   height="380"
   width="380"
   version="1.1">
  <title>frame</title>
  <path
     d="m -1.2203351,235.33246 0,-145.938728 4.25,-0.607327 c 2.3375,-0.334029 26.0750001,-0.699102 52.7500001,-0.811273 l 48.499995,-0.203946 3.68094,-2.288877 c 5.15758,-3.207083 81.24821,-79.8773 81.63861,-82.260463 0.28559,-1.743369 1.16229,-1.95066 8.25,-1.95066 7.37961,0 7.93045,0.145283 7.93045,2.09165 0,2.339957 72.33065,76.786291 79.29104,81.610317 l 4.03717,2.798033 42.5859,0.227004 c 23.42224,0.124852 43.59839,0.237352 44.83589,0.25 l 2.25,0.023 0,146.5 0,146.5 -190,0 -189.9999951,0 0,-145.93873 z m 361.5454451,127.48418 2.45455,-2.45454 0,-125.43467 c 0,-122.0108 -0.0522,-125.49911 -1.91158,-127.79546 l -1.91159,-2.36078 -164.83841,-0.29208 c -90.66113,-0.16065 -166.783355,-0.0157 -169.160505,0.32208 -2.37714,0.33779 -5.18964,1.48173 -6.25,2.54208 -1.88337,1.88337 -1.92791,4.82257 -1.92791,127.20541 0,135.93647 -0.28261,128.94927 5.25879,130.01793 1.23266,0.23772 77.29916,0.4935 169.036655,0.5684 l 166.79546,0.13618 2.45454,-2.45455 z M 38.885925,349.18486 c -2.59585,-0.3464 -4.94871,-1.34529 -5.75,-2.44113 -1.12236,-1.53491 -1.35626,-20.95557 -1.35626,-112.60697 l 0,-110.75216 2.2225,-1.55671 c 1.98815,-1.39255 18.43783,-1.5567 156.000005,-1.5567 152.77321,0 153.79064,0.0131 155.79041,2.01292 1.99616,1.99616 2.01073,2.93298 1.75,112.47238 -0.26104,109.66854 -0.27753,110.47407 -2.30269,112.49907 -2.03268,2.03252 -2.56042,2.04043 -152,2.27762 -82.47812,0.1309 -151.937405,-0.0258 -154.353965,-0.34832 z m 23.06249,-19.44148 c 1.83219,-1.94029 5.13125,-6.15913 7.33125,-9.3752 5.16341,-7.54814 16.71929,-25.01321 18.25971,-27.59699 0.65581,-1.1 3.68276,-6.1453 6.72656,-11.21178 3.04379,-5.06648 6.004315,-10.44833 6.578915,-11.95968 0.57462,-1.51134 2.54247,-5.24104 4.37303,-8.28822 1.83055,-3.04717 3.66118,-6.66532 4.06807,-8.04032 0.40688,-1.375 1.97141,-5.0067 3.47674,-8.07043 1.50532,-3.06374 3.54547,-8.00466 4.53366,-10.97983 0.9882,-2.97517 2.81622,-7.44347 4.06228,-9.92957 1.24606,-2.48609 2.57755,-5.87017 2.95886,-7.52017 0.38131,-1.65 2.17069,-8.175 3.97638,-14.5 2.28098,-7.98978 3.64308,-15.62069 4.46248,-25 0.64865,-7.425 1.39882,-15.01138 1.66704,-16.85863 0.58041,-3.99748 4.68698,-8.14137 8.06803,-8.14137 6.09253,0 7.75437,3.29693 8.70596,17.27177 0.68063,9.99555 5.64533,35.71889 8.45507,43.80776 4.85114,13.96583 7.46268,20.64206 10.18088,26.02679 1.62048,3.21016 2.94633,6.44821 2.94633,7.19569 0,0.74747 1.16946,3.5728 2.59881,6.27851 1.42934,2.70571 5.34616,10.31808 8.70405,16.91637 3.35788,6.59828 7.81342,14.43539 9.90119,17.41578 2.08777,2.98039 3.79595,5.80514 3.79595,6.27722 0,0.89627 4.01384,7.12171 11.16066,17.31011 10.08424,14.37594 15.21177,20.6911 17.50913,21.56455 3.88711,1.47788 21.62507,1.17154 23.78911,-0.41084 1.68808,-1.23435 1.84947,-3.21257 1.94113,-23.79271 0.13193,-29.62142 0.43409,-30.11555 18.32902,-29.97311 13.46352,0.10716 13.27095,0.41931 13.27095,-21.51135 0,-9.48549 0.42991,-18.3771 0.95537,-19.75914 2.03588,-5.35479 4.83161,-6.08679 24.67888,-6.4616 15.79685,-0.29831 18.43692,-0.57696 19.80664,-2.09048 1.39848,-1.54531 1.55037,-6.78738 1.31974,-45.54815 l -0.26063,-43.80185 -2.5,-1.60766 c -2.27539,-1.46322 -14.8386,-1.56274 -139.83072,-1.10766 -134.487145,0.48965 -137.360105,0.54019 -138.749995,2.44113 -1.20206,1.64404 -1.41928,16.44067 -1.41928,96.67857 0,105.63791 -0.55402,97.8803 6.99018,97.8803 3.10654,0 4.48875,-0.67927 7.17857,-3.52781 z m 138.631245,2.32781 c 1.85971,-1.85971 1.46342,-3.43063 -2.05,-8.12641 -4.86031,-6.49595 -8.35136,-11.47733 -12.94982,-18.47814 -2.27761,-3.4675 -5.45639,-7.41127 -7.06394,-8.76393 l -2.92282,-2.4594 -33.75425,0.26394 c -26.08785,0.20399 -34.11334,0.56219 -35.33528,1.5771 -0.86956,0.72224 -4.83796,6.12224 -8.818655,12 -3.98069,5.87776 -8.73784,12.53319 -10.57143,14.78983 -3.69259,4.54456 -4.24078,7.76936 -1.5838,9.31691 2.68429,1.56346 113.482105,1.44799 115.049995,-0.1199 z m 81.62857,-0.37143 c 2.38718,-2.38718 2.31545,-32.94896 -0.0836,-35.59983 -2.33157,-2.57636 -8.11311,-2.39523 -11.03056,0.34557 -2.2295,2.09451 -2.31445,2.75314 -2.31445,17.9433 0,15.1616 0.0856,15.82894 2.22251,17.32569 2.87012,2.01031 9.18933,2.002 11.20606,-0.0147 z m 48.05965,-1.42857 c 0.65318,-1.61394 0.83457,-16.44013 0.51178,-41.83175 -0.46525,-36.5982 -0.6269,-39.42447 -2.3259,-40.66574 -1.35417,-0.98935 -4.70741,-1.22473 -12.97937,-0.9111 -9.27762,0.35177 -11.47411,0.74353 -13.05988,2.32929 -1.81355,1.81356 -1.90303,3.8386 -1.83733,41.58383 0.0646,37.11833 0.18624,39.76735 1.88577,41.07161 1.37233,1.05314 4.87143,1.33665 14.30493,1.15901 12.28834,-0.23139 12.50442,-0.27516 13.5,-2.73515 z m -165.71073,-53.5567 c 3.08433,-2.16035 2.8159,-3.77596 -2.17009,-13.0616 -2.39755,-4.46506 -5.14543,-10.54006 -6.1064,-13.5 -0.96096,-2.95993 -2.55723,-6.7317 -3.54726,-8.3817 -0.99002,-1.65 -2.51031,-6.06835 -3.3784,-9.81856 -2.1528,-9.30016 -3.10972,-10.87064 -6.3926,-10.49137 -2.93597,0.33919 -5.9044,5.27221 -8.31007,13.80993 -1.66459,5.90759 -11.12789,27.14531 -13.71395,30.7771 -3.13683,4.40527 -3.69988,7.96744 -1.62225,10.26319 1.65213,1.82559 3.18484,1.95971 22.39601,1.95971 17.04651,0 21.0079,-0.26994 22.84501,-1.5567 z M 257.57966,87.071186 c 0.66,-0.66 1.2,-1.825028 1.2,-2.588952 0,-1.470374 -56.3043,-59.730105 -58.56296,-60.596835 -3.78115,-1.450962 -8.1069,2.185295 -35.48814,29.831611 -15.62804,15.779329 -28.73707,29.211421 -29.13117,29.849093 -0.3941,0.637673 0.005,1.957182 0.88785,2.932244 1.50142,1.659051 5.40055,1.772839 60.74941,1.772839 44.66834,0 59.43873,-0.293719 60.34501,-1.2 z"
     style="fill:#fff" />
</svg>
