<svg
  viewBox="0 0 187 187"
  width="187"
  height="187">
  <title>polaroid</title>
  <path
     style="fill:#fff"
     d="m 9.868649,186.70107 c 0,-0.60022 2.3072,-3.41272 5.12711,-6.25 5.28008,-5.31259 12.22281,-15.23826 15.38974,-22.00191 2.40421,-5.13471 1.47202,-5.62225 -10.78673,-5.64147 -8.69045,-0.0136 -10.18199,-0.28737 -13.5,-2.47774 -7.75168,-5.11723 -7.23012,-3.53761 -7.23012,-21.89781 0,-9.15188 0.39097,-16.63977 0.86883,-16.63977 0.47786,0 3.74036,-4.8375 7.25,-10.75 l 6.38117,-10.749997 0.5,-35.5 0.5,-35.5 3.33147,-5 c 1.83231,-2.75 4.91526,-6.1249999 6.851,-7.4999999 1.93574,-1.375 4.37408,-3.2875 5.41853,-4.25 1.7642,-1.625782 6.12242,-1.75 61.399,-1.75 51.256181,0 59.742471,0.2064 61.250001,1.489697 8.91041,7.585047 11.46209,10.3058719 13.45024,14.3418019 2.23077,4.528474 2.31475,5.703295 2.79975,39.168501 l 0.5,34.5 5.45021,9.5 c 2.99761,5.224997 6.71011,10.772117 8.25,12.326917 l 2.79979,2.82693 0,14.42308 c 0,11.66152 -0.26672,14.42308 -1.39301,14.42308 -0.76616,0 -1.65252,0.67626 -1.96969,1.5028 -0.31718,0.82654 -2.70342,2.85154 -5.30277,4.5 -4.45283,2.82391 -5.31479,2.9972 -14.90787,2.9972 -12.83925,0 -13.64426,0.66366 -9.86099,8.12957 3.80999,7.51868 9.57867,15.02258 15.40788,20.04258 2.76401,2.38032 5.02569,4.89035 5.02596,5.57785 3.9e-4,0.98978 -16.96591,1.25 -81.499501,1.25 -58.21269,0 -81.5,-0.31182 -81.5,-1.09131 z M 152.56749,178.1348 c 0.4189,-1.09162 -0.30314,-2.46546 -2.11467,-4.02368 l -2.75074,-2.36609 -57.389451,0.27368 c -57.35267,0.27349 -57.39083,0.27506 -59.55566,2.44039 -1.27298,1.27328 -1.91569,2.81959 -1.55865,3.75 0.54507,1.42045 6.88734,1.58328 61.67033,1.58328 55.935571,0 61.116181,-0.13918 61.698841,-1.65758 z m -8.87723,-14.83069 c 0.30643,-0.30643 -0.19522,-2.68443 -1.11477,-5.28444 -0.91955,-2.60001 -2.38951,-7.8722 -3.26657,-11.71598 -0.87707,-3.84379 -2.12243,-7.3244 -2.76747,-7.73469 -0.64504,-0.4103 -21.05316,-0.75289 -45.351381,-0.76131 -37.77615,-0.0131 -44.39403,0.20016 -45.66535,1.47147 -0.81773,0.81773 -2.15373,4.30523 -2.96888,7.75 -0.81515,3.44477 -2.30813,8.42184 -3.31773,11.06014 -1.32334,3.45818 -1.51818,4.99315 -0.69813,5.5 1.32835,0.82103 104.323401,0.54168 105.150281,-0.28519 z M 33.934389,143.7572 c 1.54079,-0.82461 2.84014,-5.5208 1.68426,-6.08736 -0.1375,-0.0674 -4.975,-0.40489 -10.75,-0.75 -10.06952,-0.60173 -10.51373,-0.72444 -10.83467,-2.9928 -0.18407,-1.30093 0.10444,-2.80444 0.64113,-3.34112 1.05449,-1.05449 151.539311,-1.31591 153.237771,-0.2662 1.30649,0.80746 1.20966,5.19771 -0.13295,6.02749 -0.59879,0.37007 -4.98629,0.62215 -9.75,0.56018 -4.76371,-0.062 -9.25981,0.27312 -9.99136,0.74466 -0.75358,0.48574 -1.18701,2.11061 -1,3.74884 l 0.33008,2.89149 11.6016,0.28045 c 13.20751,0.31927 15.38617,-0.5609 16.78334,-6.78045 1.15406,-5.13727 0.53392,-14.11936 -1.04385,-15.11938 -0.73761,-0.4675 -38.56276,-0.8569 -84.055911,-0.86532 -94.87635,-0.0176 -84.78518,-1.26678 -84.78518,10.49588 0,6.00856 0.27903,6.9217 2.92307,9.56574 2.84651,2.84651 3.18876,2.92308 13.06574,2.92308 5.57847,0 11.01308,-0.46583 12.07693,-1.03518 z M 171.4914,112.33307 c 0.82552,-2.15128 -7.64965,-16.513397 -10.09222,-17.102402 -1.1168,-0.269305 -33.51098,-0.365591 -71.987091,-0.21397 l -69.95656,0.275675 -4.68312,7.955717 c -2.57571,4.37564 -4.45961,8.53814 -4.18645,9.25 0.40066,1.0441 15.94566,1.29428 80.42106,1.29428 69.130771,0 80.000011,-0.19708 80.484381,-1.4593 z M 77.303549,85.817124 c 2.35844,-0.89668 2.5651,-1.456613 2.5651,-6.950229 0,-5.871292 -0.0791,-6.040918 -4.56121,-9.77475 -2.50866,-2.089875 -5.88366,-6.104549 -7.5,-8.921499 -2.50137,-4.359386 -2.93879,-6.187678 -2.93879,-12.283243 0,-8.980387 2.75077,-14.887442 9.94468,-21.355389 4.9047,-4.409748 5.05532,-4.708273 5.05532,-10.019957 0,-3.508814 -0.5098,-5.897884 -1.41965,-6.6529989 -1.01863,-0.845388 -7.4678,-1.091834 -22.83076,-0.872445 l -21.41111,0.30576 -3.59952,2.7477089 c -1.97973,1.51124 -4.64339,4.21124 -5.91924,6 -2.29119,3.212289 -2.3233,3.637862 -2.6105,34.600701 -0.21093,22.741052 0.0286,31.733245 0.87245,32.75 0.94161,1.134569 5.98556,1.40159 26.47567,1.40159 14.02657,0 26.45614,-0.434828 27.87756,-0.975249 z m -38.4349,-9.024751 c -2.63922,-2.639212 -2.52303,-4.567882 0.45454,-7.545455 2.98436,-2.98436 3.56162,-3.016267 6.9106,-0.381965 3.16219,2.487379 3.33977,4.793656 0.5959,7.738859 -2.53834,2.724587 -5.35823,2.791377 -7.96104,0.188561 z m 54.37681,8.713736 c 1.32459,-0.968563 1.68054,-2.388786 1.44113,-5.75 -0.2722,-3.821479 -0.65828,-4.511889 -2.68328,-4.798401 -1.30093,-0.184066 -2.85528,0.155284 -3.45411,0.75411 -1.32923,1.329227 -0.99758,7.993632 0.4868,9.7822 1.3472,1.62328 2.00345,1.625165 4.20946,0.01209 z m 65.058081,0.311015 2.5651,-0.975249 0,-30.05687 c 0,-32.19014 -0.30357,-34.472273 -5.29773,-39.826303 -5.24119,-5.6188729 -7.91593,-6.1663289 -30.12724,-6.1663289 -23.28942,0 -22.57502,-0.267612 -22.57502,8.4565409 0,4.230964 0.41752,4.994866 5.36496,9.815741 7.70794,7.510753 9.10639,10.615635 9.11065,20.227718 0.004,9.797489 -1.57423,13.395959 -9.07434,20.685597 -5.17238,5.027226 -5.40127,5.470514 -5.40127,10.460619 0,8.544001 -0.63771,8.353784 28.00633,8.353784 13.73484,0 26.01157,-0.436511 27.42856,-0.975249 z M 127.06865,42.592373 c -0.76086,-0.760863 -1.2,-4.594877 -1.2,-10.476947 0,-8.523118 0.18283,-9.395079 2.25,-10.730737 2.86404,-1.85054 21.99935,-1.746406 23.87359,0.12992 1.49681,1.498481 2.10128,17.989054 0.75183,20.510549 -0.82198,1.535885 -2.48581,1.767215 -12.7106,1.767215 -7.81708,0 -12.16749,-0.402665 -12.96482,-1.2 z m 17.86957,-8.383823 c 3.01385,-3.631472 -4.40358,-7.737795 -8.78795,-4.865045 -4.2817,2.805474 -2.13712,6.448868 3.79594,6.448868 2.13549,0 4.22873,-0.664125 4.99201,-1.583823 z M 99.658489,64.889691 c 6.709901,-3.441036 11.210161,-10.567765 11.210161,-17.752686 0,-5.264217 -4.21248,-12.552934 -9.17403,-15.873544 -3.577881,-2.394559 -5.391251,-2.90179 -10.486141,-2.93316 -5.25851,-0.03238 -6.79539,0.403138 -10.5,2.975447 -12.24748,8.50407 -11.47332,26.687191 1.41719,33.28664 5.35059,2.739297 12.53351,2.861097 17.53282,0.297303 z m -5.98984,-45.297318 c 1.67332,-1.673327 1.50214,-8.304352 -0.25197,-9.7601309 -2.78886,-2.314555 -5.00872,-0.807311 -5.62832,3.8215299 -0.78661,5.876572 2.56125,9.257637 5.88029,5.938601 z"
     />
</svg>
