<svg
   xmlns:dc="http://purl.org/dc/elements/1.1/"
   xmlns:cc="http://creativecommons.org/ns#"
   xmlns:rdf="http://www.w3.org/1999/02/22-rdf-syntax-ns#"
   xmlns:svg="http://www.w3.org/2000/svg"
   xmlns="http://www.w3.org/2000/svg"
   viewBox="0 0 30.03223 24.5916"
   height="24.5916"
   width="30.03223">
  <path
     id="path4138"
     d="m 1.4460752,23.116394 c -2.29838772,-2.37243 -1.61945085,-2.375108 0.376481,-5.857003 1.7907484,-3.123954 1.871332,-4.515443 1.046458,-6.685024 C 0.5039782,4.3538508 2.5709372,0 7.8891162,0 9.9146917,0 11.451182,0.70277269 12.49831,2.6001375 13.308634,4.0684214 13.92163,6.8632677 12.997091,9.7052414 11.589994,14.030571 7.4499692,21.41957 4.5769232,23.803986 3.4414872,24.746315 3.4511031,25.186014 1.4460752,23.116394 Z m 16.9413498,-0.06481 c -1.72489,-1.905981 -1.714398,-2.135044 0.282678,-6.171492 1.488092,-3.0077 1.563733,-4.592169 1.122347,-5.970325 -1.168877,-3.6496247 -0.619739,-7.17137 0.46863,-8.8834954 1.730075,-2.72160084 7.105755,-2.3022196 8.665581,-0.422744 3.074507,3.7045532 -0.635063,15.8059334 -6.547966,21.3608174 -2.190771,2.058122 -2.20732,2.058484 -3.99127,0.08724 z"
     style="fill:#515f67" />
</svg>
